<svg width="802" height="256" viewBox="0 0 802 256" fill="none" xmlns="http://www.w3.org/2000/svg">
<path d="M698.874 81.74C700.451 80.6879 700.821 78.5225 699.7 76.9034L681.427 50.518C680.305 48.8989 678.118 48.4392 676.541 49.4913C674.964 50.5434 674.594 52.7088 675.715 54.3279L691.958 77.7816L669.114 93.0213C667.537 94.0734 667.168 96.2388 668.289 97.858C669.41 99.4771 671.598 99.9368 673.175 98.8847L698.874 81.74ZM189.344 6.30827L191.855 3.97681L189.038 0.973474L186.571 4.05814L189.344 6.30827ZM257.344 78.8083L254.833 81.1398L257.066 83.5202L259.552 81.6131L257.344 78.8083ZM351.844 6.30827L352.428 2.88822L350.866 2.56009L349.637 3.5035L351.844 6.30827ZM96.345 41.2987L98.8624 38.9743L96.3774 36.3111L93.8594 38.733L96.345 41.2987ZM131.345 78.8083L128.828 81.1328L131.644 84.1515L134.119 81.0584L131.345 78.8083ZM186.833 8.63972L254.833 81.1398L259.855 76.4769L191.855 3.97681L186.833 8.63972ZM259.552 81.6131L354.052 9.11304L349.637 3.5035L255.137 76.0035L259.552 81.6131ZM351.261 9.72831L696.261 82.2284L697.428 75.3883L352.428 2.88822L351.261 9.72831ZM59.8306 81.3741L98.8306 43.8645L93.8594 38.733L54.8593 76.2426L59.8306 81.3741ZM93.8275 43.6232L128.828 81.1328L133.863 76.4839L98.8624 38.9743L93.8275 43.6232ZM134.119 81.0584L192.118 8.55839L186.571 4.05814L128.571 76.5582L134.119 81.0584Z" fill="#F00707"/>
<path d="M188.795 188.98C185.015 188.98 181.678 188.303 178.785 186.95C175.891 185.597 173.628 183.66 171.995 181.14C170.361 178.62 169.545 175.587 169.545 172.04V170.08H178.645V172.04C178.645 174.98 179.555 177.197 181.375 178.69C183.195 180.137 185.668 180.86 188.795 180.86C191.968 180.86 194.325 180.23 195.865 178.97C197.451 177.71 198.245 176.1 198.245 174.14C198.245 172.787 197.848 171.69 197.055 170.85C196.308 170.01 195.188 169.333 193.695 168.82C192.248 168.26 190.475 167.747 188.375 167.28L186.765 166.93C183.405 166.183 180.511 165.25 178.085 164.13C175.705 162.963 173.861 161.447 172.555 159.58C171.295 157.713 170.665 155.287 170.665 152.3C170.665 149.313 171.365 146.77 172.765 144.67C174.211 142.523 176.218 140.89 178.785 139.77C181.398 138.603 184.455 138.02 187.955 138.02C191.455 138.02 194.558 138.627 197.265 139.84C200.018 141.007 202.165 142.78 203.705 145.16C205.291 147.493 206.085 150.433 206.085 153.98V156.08H196.985V153.98C196.985 152.113 196.611 150.62 195.865 149.5C195.165 148.333 194.138 147.493 192.785 146.98C191.431 146.42 189.821 146.14 187.955 146.14C185.155 146.14 183.078 146.677 181.725 147.75C180.418 148.777 179.765 150.2 179.765 152.02C179.765 153.233 180.068 154.26 180.675 155.1C181.328 155.94 182.285 156.64 183.545 157.2C184.805 157.76 186.415 158.25 188.375 158.67L189.985 159.02C193.485 159.767 196.518 160.723 199.085 161.89C201.698 163.057 203.728 164.597 205.175 166.51C206.621 168.423 207.345 170.873 207.345 173.86C207.345 176.847 206.575 179.483 205.035 181.77C203.541 184.01 201.395 185.783 198.595 187.09C195.841 188.35 192.575 188.98 188.795 188.98ZM224.004 188V147.4H209.724V139H247.524V147.4H233.244V188H224.004ZM253.816 188V139H275.096C278.176 139 280.859 139.537 283.146 140.61C285.433 141.683 287.206 143.2 288.466 145.16C289.726 147.12 290.356 149.43 290.356 152.09V152.93C290.356 155.87 289.656 158.25 288.256 160.07C286.856 161.89 285.129 163.22 283.076 164.06V165.32C284.943 165.413 286.389 166.067 287.416 167.28C288.443 168.447 288.956 170.01 288.956 171.97V188H279.716V173.3C279.716 172.18 279.413 171.27 278.806 170.57C278.246 169.87 277.289 169.52 275.936 169.52H263.056V188H253.816ZM263.056 161.12H274.116C276.309 161.12 278.013 160.537 279.226 159.37C280.486 158.157 281.116 156.57 281.116 154.61V153.91C281.116 151.95 280.509 150.387 279.296 149.22C278.083 148.007 276.356 147.4 274.116 147.4H263.056V161.12ZM317.085 188.98C310.925 188.98 306.025 187.3 302.385 183.94C298.745 180.533 296.925 175.68 296.925 169.38V157.62C296.925 151.32 298.745 146.49 302.385 143.13C306.025 139.723 310.925 138.02 317.085 138.02C323.245 138.02 328.145 139.723 331.785 143.13C335.425 146.49 337.245 151.32 337.245 157.62V169.38C337.245 175.68 335.425 180.533 331.785 183.94C328.145 187.3 323.245 188.98 317.085 188.98ZM317.085 180.72C320.538 180.72 323.221 179.717 325.135 177.71C327.048 175.703 328.005 173.02 328.005 169.66V157.34C328.005 153.98 327.048 151.297 325.135 149.29C323.221 147.283 320.538 146.28 317.085 146.28C313.678 146.28 310.995 147.283 309.035 149.29C307.121 151.297 306.165 153.98 306.165 157.34V169.66C306.165 173.02 307.121 175.703 309.035 177.71C310.995 179.717 313.678 180.72 317.085 180.72ZM345.349 188V139H362.919L372.649 181.7H373.909V139H383.009V188H365.439L355.709 145.3H354.449V188H345.349ZM409.184 188.98C405.824 188.98 402.767 188.233 400.014 186.74C397.307 185.2 395.137 182.983 393.504 180.09C391.917 177.15 391.124 173.58 391.124 169.38V157.62C391.124 151.32 392.897 146.49 396.444 143.13C399.99 139.723 404.797 138.02 410.864 138.02C416.884 138.02 421.527 139.63 424.794 142.85C428.107 146.023 429.764 150.34 429.764 155.8V156.08H420.664V155.52C420.664 153.793 420.29 152.23 419.544 150.83C418.844 149.43 417.77 148.333 416.324 147.54C414.877 146.7 413.057 146.28 410.864 146.28C407.597 146.28 405.03 147.283 403.164 149.29C401.297 151.297 400.364 154.027 400.364 157.48V169.52C400.364 172.927 401.297 175.68 403.164 177.78C405.03 179.833 407.644 180.86 411.004 180.86C414.364 180.86 416.814 179.973 418.354 178.2C419.894 176.427 420.664 174.187 420.664 171.48V170.78H409.044V162.94H429.764V188H421.224V183.31H419.964C419.637 184.103 419.1 184.943 418.354 185.83C417.654 186.717 416.58 187.463 415.134 188.07C413.687 188.677 411.704 188.98 409.184 188.98ZM473.375 188.98C469.595 188.98 466.258 188.303 463.365 186.95C460.472 185.597 458.208 183.66 456.575 181.14C454.942 178.62 454.125 175.587 454.125 172.04V170.08H463.225V172.04C463.225 174.98 464.135 177.197 465.955 178.69C467.775 180.137 470.248 180.86 473.375 180.86C476.548 180.86 478.905 180.23 480.445 178.97C482.032 177.71 482.825 176.1 482.825 174.14C482.825 172.787 482.428 171.69 481.635 170.85C480.888 170.01 479.768 169.333 478.275 168.82C476.828 168.26 475.055 167.747 472.955 167.28L471.345 166.93C467.985 166.183 465.092 165.25 462.665 164.13C460.285 162.963 458.442 161.447 457.135 159.58C455.875 157.713 455.245 155.287 455.245 152.3C455.245 149.313 455.945 146.77 457.345 144.67C458.792 142.523 460.798 140.89 463.365 139.77C465.978 138.603 469.035 138.02 472.535 138.02C476.035 138.02 479.138 138.627 481.845 139.84C484.598 141.007 486.745 142.78 488.285 145.16C489.872 147.493 490.665 150.433 490.665 153.98V156.08H481.565V153.98C481.565 152.113 481.192 150.62 480.445 149.5C479.745 148.333 478.718 147.493 477.365 146.98C476.012 146.42 474.402 146.14 472.535 146.14C469.735 146.14 467.658 146.677 466.305 147.75C464.998 148.777 464.345 150.2 464.345 152.02C464.345 153.233 464.648 154.26 465.255 155.1C465.908 155.94 466.865 156.64 468.125 157.2C469.385 157.76 470.995 158.25 472.955 158.67L474.565 159.02C478.065 159.767 481.098 160.723 483.665 161.89C486.278 163.057 488.308 164.597 489.755 166.51C491.202 168.423 491.925 170.873 491.925 173.86C491.925 176.847 491.155 179.483 489.615 181.77C488.122 184.01 485.975 185.783 483.175 187.09C480.422 188.35 477.155 188.98 473.375 188.98ZM498.816 188V139H530.316V147.4H508.056V159.09H528.356V167.49H508.056V179.6H530.736V188H498.816ZM537.576 188V139H546.816V179.6H569.216V188H537.576ZM575.515 188V139H584.755V179.6H607.155V188H575.515Z" fill="white"/>
</svg>
