<svg width="600" height="271" viewBox="0 0 600 271" fill="none" xmlns="http://www.w3.org/2000/svg">
<path d="M599.306 30.9172C600.117 29.184 599.352 27.0868 597.597 26.233L568.992 12.3201C567.236 11.4663 565.155 12.1792 564.344 13.9125C563.532 15.6457 564.297 17.7428 566.052 18.5966L591.479 30.9637L579.723 56.0698C578.912 57.803 579.677 59.9002 581.432 60.754C583.187 61.6077 585.268 60.8948 586.08 59.1616L599.306 30.9172ZM192.5 130.017L190.571 132.888L192.825 134.431L194.837 132.679L192.5 130.017ZM231 96.4999L232.901 93.6098L230.655 92.1039L228.663 93.8381L231 96.4999ZM425 88L426.057 91.36L426.133 91.3378L426.208 91.3122L425 88ZM101.627 130.017L99.9903 133.068L102.056 134.21L103.858 132.768L101.627 130.017ZM41 96.4999L42.6372 93.4487L40.4506 92.2399L38.6299 93.8673L41 96.4999ZM143.5 96.4999L145.429 93.6288L143.267 92.1499L141.27 93.7488L143.5 96.4999ZM281 130.017L279.099 132.907L280.484 133.836L282.057 133.377L281 130.017ZM194.837 132.679L233.337 99.1617L228.663 93.8381L190.163 127.355L194.837 132.679ZM426.208 91.3122L597.336 32.6835L594.919 26.0591L423.792 84.6878L426.208 91.3122ZM5.87012 132.65L43.3702 99.1326L38.6299 93.8673L1.12979 127.385L5.87012 132.65ZM39.3629 99.5512L99.9903 133.068L103.265 126.966L42.6372 93.4487L39.3629 99.5512ZM103.858 132.768L145.73 99.2511L141.27 93.7488L99.3973 127.266L103.858 132.768ZM141.571 99.371L190.571 132.888L194.429 127.146L145.429 93.6288L141.571 99.371ZM229.099 99.3901L279.099 132.907L282.901 127.127L232.901 93.6098L229.099 99.3901ZM282.057 133.377L426.057 91.36L423.943 84.64L279.943 126.657L282.057 133.377Z" fill="#07F01E"/>
<path d="M94.8981 223.98C91.1181 223.98 87.7815 223.303 84.8881 221.95C81.9948 220.597 79.7315 218.66 78.0981 216.14C76.4648 213.62 75.6481 210.587 75.6481 207.04V205.08H84.7481V207.04C84.7481 209.98 85.6581 212.197 87.4781 213.69C89.2981 215.137 91.7715 215.86 94.8981 215.86C98.0715 215.86 100.428 215.23 101.968 213.97C103.555 212.71 104.348 211.1 104.348 209.14C104.348 207.787 103.951 206.69 103.158 205.85C102.411 205.01 101.291 204.333 99.7981 203.82C98.3515 203.26 96.5781 202.747 94.4781 202.28L92.8681 201.93C89.5081 201.183 86.6148 200.25 84.1881 199.13C81.8081 197.963 79.9648 196.447 78.6581 194.58C77.3981 192.713 76.7681 190.287 76.7681 187.3C76.7681 184.313 77.4681 181.77 78.8681 179.67C80.3148 177.523 82.3215 175.89 84.8881 174.77C87.5015 173.603 90.5581 173.02 94.0581 173.02C97.5581 173.02 100.661 173.627 103.368 174.84C106.121 176.007 108.268 177.78 109.808 180.16C111.395 182.493 112.188 185.433 112.188 188.98V191.08H103.088V188.98C103.088 187.113 102.715 185.62 101.968 184.5C101.268 183.333 100.241 182.493 98.8881 181.98C97.5348 181.42 95.9248 181.14 94.0581 181.14C91.2581 181.14 89.1815 181.677 87.8281 182.75C86.5215 183.777 85.8681 185.2 85.8681 187.02C85.8681 188.233 86.1715 189.26 86.7781 190.1C87.4315 190.94 88.3881 191.64 89.6481 192.2C90.9081 192.76 92.5181 193.25 94.4781 193.67L96.0881 194.02C99.5881 194.767 102.621 195.723 105.188 196.89C107.801 198.057 109.831 199.597 111.278 201.51C112.725 203.423 113.448 205.873 113.448 208.86C113.448 211.847 112.678 214.483 111.138 216.77C109.645 219.01 107.498 220.783 104.698 222.09C101.945 223.35 98.6781 223.98 94.8981 223.98ZM130.107 223V182.4H115.827V174H153.627V182.4H139.347V223H130.107ZM159.919 223V174H181.199C184.279 174 186.963 174.537 189.249 175.61C191.536 176.683 193.309 178.2 194.569 180.16C195.829 182.12 196.459 184.43 196.459 187.09V187.93C196.459 190.87 195.759 193.25 194.359 195.07C192.959 196.89 191.233 198.22 189.179 199.06V200.32C191.046 200.413 192.493 201.067 193.519 202.28C194.546 203.447 195.059 205.01 195.059 206.97V223H185.819V208.3C185.819 207.18 185.516 206.27 184.909 205.57C184.349 204.87 183.393 204.52 182.039 204.52H169.159V223H159.919ZM169.159 196.12H180.219C182.413 196.12 184.116 195.537 185.329 194.37C186.589 193.157 187.219 191.57 187.219 189.61V188.91C187.219 186.95 186.613 185.387 185.399 184.22C184.186 183.007 182.459 182.4 180.219 182.4H169.159V196.12ZM223.188 223.98C217.028 223.98 212.128 222.3 208.488 218.94C204.848 215.533 203.028 210.68 203.028 204.38V192.62C203.028 186.32 204.848 181.49 208.488 178.13C212.128 174.723 217.028 173.02 223.188 173.02C229.348 173.02 234.248 174.723 237.888 178.13C241.528 181.49 243.348 186.32 243.348 192.62V204.38C243.348 210.68 241.528 215.533 237.888 218.94C234.248 222.3 229.348 223.98 223.188 223.98ZM223.188 215.72C226.641 215.72 229.325 214.717 231.238 212.71C233.151 210.703 234.108 208.02 234.108 204.66V192.34C234.108 188.98 233.151 186.297 231.238 184.29C229.325 182.283 226.641 181.28 223.188 181.28C219.781 181.28 217.098 182.283 215.138 184.29C213.225 186.297 212.268 188.98 212.268 192.34V204.66C212.268 208.02 213.225 210.703 215.138 212.71C217.098 214.717 219.781 215.72 223.188 215.72ZM251.453 223V174H269.023L278.753 216.7H280.013V174H289.113V223H271.543L261.813 180.3H260.553V223H251.453ZM315.287 223.98C311.927 223.98 308.87 223.233 306.117 221.74C303.41 220.2 301.24 217.983 299.607 215.09C298.02 212.15 297.227 208.58 297.227 204.38V192.62C297.227 186.32 299 181.49 302.547 178.13C306.094 174.723 310.9 173.02 316.967 173.02C322.987 173.02 327.63 174.63 330.897 177.85C334.21 181.023 335.867 185.34 335.867 190.8V191.08H326.767V190.52C326.767 188.793 326.394 187.23 325.647 185.83C324.947 184.43 323.874 183.333 322.427 182.54C320.98 181.7 319.16 181.28 316.967 181.28C313.7 181.28 311.134 182.283 309.267 184.29C307.4 186.297 306.467 189.027 306.467 192.48V204.52C306.467 207.927 307.4 210.68 309.267 212.78C311.134 214.833 313.747 215.86 317.107 215.86C320.467 215.86 322.917 214.973 324.457 213.2C325.997 211.427 326.767 209.187 326.767 206.48V205.78H315.147V197.94H335.867V223H327.327V218.31H326.067C325.74 219.103 325.204 219.943 324.457 220.83C323.757 221.717 322.684 222.463 321.237 223.07C319.79 223.677 317.807 223.98 315.287 223.98ZM361.068 223V214.88H367.508V182.12H361.068V174H386.268C389.255 174 391.845 174.513 394.038 175.54C396.278 176.52 398.005 177.943 399.218 179.81C400.478 181.63 401.108 183.823 401.108 186.39V187.09C401.108 189.33 400.688 191.173 399.848 192.62C399.008 194.02 398.005 195.117 396.838 195.91C395.718 196.657 394.645 197.193 393.618 197.52V198.78C394.645 199.06 395.765 199.597 396.978 200.39C398.192 201.137 399.218 202.233 400.058 203.68C400.945 205.127 401.388 207.017 401.388 209.35V210.05C401.388 212.757 400.758 215.09 399.498 217.05C398.238 218.963 396.488 220.433 394.248 221.46C392.055 222.487 389.488 223 386.548 223H361.068ZM376.748 214.6H385.428C387.435 214.6 389.045 214.11 390.258 213.13C391.518 212.15 392.148 210.75 392.148 208.93V208.23C392.148 206.41 391.542 205.01 390.328 204.03C389.115 203.05 387.482 202.56 385.428 202.56H376.748V214.6ZM376.748 194.16H385.288C387.202 194.16 388.765 193.67 389.978 192.69C391.238 191.71 391.868 190.357 391.868 188.63V187.93C391.868 186.157 391.262 184.803 390.048 183.87C388.835 182.89 387.248 182.4 385.288 182.4H376.748V194.16ZM427.853 223.98C423.839 223.98 420.386 223.257 417.493 221.81C414.646 220.317 412.453 218.217 410.913 215.51C409.419 212.757 408.673 209.513 408.673 205.78V174H417.913V206.06C417.913 209.047 418.753 211.403 420.433 213.13C422.159 214.857 424.633 215.72 427.853 215.72C431.073 215.72 433.523 214.857 435.203 213.13C436.929 211.403 437.793 209.047 437.793 206.06V174H447.033V205.78C447.033 209.513 446.263 212.757 444.723 215.51C443.229 218.217 441.036 220.317 438.143 221.81C435.296 223.257 431.866 223.98 427.853 223.98ZM468.584 223V206.13L451.924 174H462.214L472.574 195H473.834L484.194 174H494.484L477.824 206.13V223H468.584Z" fill="white"/>
</svg>
