<svg width="802" height="261" viewBox="0 0 802 261" fill="none" xmlns="http://www.w3.org/2000/svg">
<path d="M711.03 80.9318C712.607 79.8797 712.977 77.7143 711.855 76.0951L693.582 49.7098C692.461 48.0906 690.274 47.631 688.697 48.683C687.119 49.7351 686.75 51.9006 687.871 53.5197L704.114 76.9733L681.27 92.2131C679.693 93.2652 679.324 95.4306 680.445 97.0498C681.566 98.6689 683.754 99.1286 685.331 98.0765L711.03 80.9318ZM201.5 5.50004L204.011 3.16858L201.194 0.165249L198.726 3.24991L201.5 5.50004ZM269.5 78.0001L266.989 80.3315L269.222 82.712L271.707 80.8049L269.5 78.0001ZM364 5.50004L364.583 2.08L363.022 1.75187L361.792 2.69527L364 5.50004ZM108.5 40.4905L111.018 38.166L108.533 35.5029L106.015 37.9247L108.5 40.4905ZM143.501 78.0001L140.983 80.3245L143.8 83.3433L146.274 80.2502L143.501 78.0001ZM198.989 7.83149L266.989 80.3315L272.011 75.6686L204.011 3.16858L198.989 7.83149ZM271.707 80.8049L366.208 8.30481L361.792 2.69527L267.292 75.1953L271.707 80.8049ZM363.417 8.92008L708.416 81.4201L709.583 74.58L364.583 2.08L363.417 8.92008ZM71.9859 80.5659L110.986 43.0562L106.015 37.9247L67.0146 75.4344L71.9859 80.5659ZM105.983 42.8149L140.983 80.3245L146.018 75.6756L111.018 38.166L105.983 42.8149ZM146.274 80.2502L204.273 7.75017L198.726 3.24991L140.727 75.75L146.274 80.2502Z" fill="#F00707"/>
</svg>
