<svg width="591" height="271" viewBox="0 0 591 271" fill="none" xmlns="http://www.w3.org/2000/svg">
<path d="M588.039 97.1793C589.776 96.3733 590.495 94.2964 589.645 92.5405L575.797 63.926C574.947 62.17 572.85 61.4 571.113 62.206C569.376 63.012 568.656 65.0889 569.506 66.8448L581.816 92.28L556.652 103.955C554.915 104.761 554.196 106.838 555.045 108.594C555.895 110.35 557.992 111.12 559.73 110.314L588.039 97.1793ZM196 93.9999L194.446 97.0956L196.104 97.9567L197.717 97.0904L196 93.9999ZM283.5 46.9999L285.054 43.9043L283.396 43.0432L281.783 43.9095L283.5 46.9999ZM374 93.9999L372.446 97.0956L374.133 97.9717L375.76 97.0665L374 93.9999ZM105.5 46.9999L107.054 43.9043L105.525 43.1103L103.987 43.8089L105.5 46.9999ZM458.5 46.9999L459.636 43.7198L458.123 43.1641L456.74 43.9334L458.5 46.9999ZM197.717 97.0904L285.217 50.0904L281.783 43.9095L194.283 90.9095L197.717 97.0904ZM281.946 50.0956L372.446 97.0956L375.554 90.9043L285.054 43.9043L281.946 50.0956ZM3.49753 97.191L107.013 50.191L103.987 43.8089L0.47094 90.8089L3.49753 97.191ZM103.946 50.0956L194.446 97.0956L197.554 90.9043L107.054 43.9043L103.946 50.0956ZM375.76 97.0665L460.26 50.0665L456.74 43.9334L372.24 90.9334L375.76 97.0665ZM457.364 50.2801L585.364 97.2801L587.636 90.7198L459.636 43.7198L457.364 50.2801Z" fill="#A7ACBE" fill-opacity="0.8"/>
<path d="M195.382 169.234V219H185.128L165.133 185.641V219H154.879V169.234H165.133L185.163 202.628V169.234H195.382ZM237.697 211.002V219H211.208V211.002H237.697ZM214.557 169.234V219H204.303V169.234H214.557ZM234.245 189.503V197.296H211.208V189.503H234.245ZM237.663 169.234V177.267H211.208V169.234H237.663ZM271.159 169.234H281.378V202.115C281.378 205.943 280.558 209.168 278.917 211.788C277.3 214.409 275.055 216.38 272.184 217.701C269.336 219.023 266.055 219.684 262.34 219.684C258.626 219.684 255.322 219.023 252.428 217.701C249.557 216.38 247.301 214.409 245.661 211.788C244.043 209.168 243.234 205.943 243.234 202.115V169.234H253.488V202.115C253.488 204.348 253.841 206.171 254.547 207.584C255.254 208.997 256.268 210.034 257.589 210.694C258.934 211.355 260.517 211.686 262.34 211.686C264.209 211.686 265.792 211.355 267.091 210.694C268.413 210.034 269.416 208.997 270.099 207.584C270.806 206.171 271.159 204.348 271.159 202.115V169.234ZM312.072 169.234V219H301.852V169.234H312.072ZM327.384 169.234V177.267H286.779V169.234H327.384ZM333.229 169.234H351.789C355.594 169.234 358.864 169.804 361.598 170.943C364.355 172.083 366.474 173.769 367.956 176.002C369.437 178.235 370.177 180.981 370.177 184.239C370.177 186.905 369.722 189.195 368.81 191.109C367.921 193.001 366.657 194.584 365.016 195.86C363.398 197.114 361.496 198.116 359.308 198.868L356.061 200.577H339.928L339.86 192.579H351.857C353.657 192.579 355.15 192.26 356.334 191.622C357.519 190.984 358.408 190.095 359 188.956C359.616 187.817 359.923 186.495 359.923 184.991C359.923 183.396 359.627 182.018 359.035 180.855C358.442 179.693 357.542 178.805 356.334 178.189C355.127 177.574 353.611 177.267 351.789 177.267H343.483V219H333.229V169.234ZM361.051 219L349.704 196.817L360.539 196.749L372.023 218.521V219H361.051ZM398.307 177.745L384.772 219H373.869L392.36 169.234H399.298L398.307 177.745ZM409.552 219L395.983 177.745L394.889 169.234H401.896L420.49 219H409.552ZM408.937 200.475V208.507H382.653V200.475H408.937ZM457.096 211.002V219H432.042V211.002H457.096ZM435.358 169.234V219H425.104V169.234H435.358Z" fill="white"/>
</svg>
