<svg width="613" height="271" viewBox="0 0 613 271" fill="none" xmlns="http://www.w3.org/2000/svg">
<path d="M611.764 22.8458C612.464 21.0624 611.57 19.0141 609.767 18.2709L580.388 6.15892C578.585 5.41567 576.556 6.25889 575.856 8.0423C575.156 9.8257 576.051 11.874 577.854 12.6172L603.969 23.3834L593.832 49.2165C593.132 50.9999 594.027 53.0482 595.829 53.7914C597.632 54.5347 599.661 53.6915 600.361 51.9081L611.764 22.8458ZM209 117.094L207.387 120.159L208.971 121.018L210.566 120.26L209 117.094ZM325 62L327.484 59.5961L325.699 57.7577L323.433 58.8336L325 62ZM378.5 117.094L376.016 119.498L377.711 121.244L379.912 120.329L378.5 117.094ZM107.5 62L109.113 58.9353L107.443 58.0291L105.799 58.9011L107.5 62ZM210.566 120.26L326.566 65.1664L323.433 58.8336L207.434 113.928L210.566 120.26ZM322.516 64.4039L376.016 119.498L380.984 114.69L327.484 59.5961L322.516 64.4039ZM379.912 120.329L609.912 24.735L607.088 18.265L377.088 113.859L379.912 120.329ZM5.32802 120.193L109.201 65.0988L105.799 58.9011L1.9263 113.995L5.32802 120.193ZM105.887 65.0646L207.387 120.159L210.613 114.029L109.113 58.9353L105.887 65.0646Z" fill="#07F01E"/>
<path d="M265.831 197.159H253.048L252.979 190.118H263.712C265.603 190.118 267.153 189.879 268.36 189.4C269.568 188.899 270.468 188.181 271.061 187.247C271.676 186.29 271.983 185.128 271.983 183.761C271.983 182.211 271.687 180.958 271.095 180.001C270.525 179.044 269.625 178.349 268.395 177.916C267.187 177.483 265.626 177.267 263.712 177.267H256.603V219H246.349V169.234H263.712C266.606 169.234 269.192 169.508 271.471 170.055C273.772 170.602 275.72 171.433 277.315 172.55C278.91 173.666 280.13 175.079 280.973 176.788C281.816 178.474 282.237 180.479 282.237 182.804C282.237 184.854 281.77 186.746 280.836 188.478C279.924 190.209 278.478 191.622 276.495 192.716C274.535 193.81 271.972 194.413 268.805 194.527L265.831 197.159ZM265.387 219H250.245L254.244 211.002H265.387C267.187 211.002 268.657 210.717 269.796 210.147C270.935 209.555 271.778 208.757 272.325 207.755C272.872 206.752 273.146 205.602 273.146 204.303C273.146 202.844 272.895 201.58 272.394 200.509C271.915 199.438 271.14 198.618 270.069 198.048C268.998 197.455 267.586 197.159 265.831 197.159H255.953L256.021 190.118H268.326L270.685 192.887C273.715 192.841 276.153 193.377 277.999 194.493C279.868 195.587 281.223 197.011 282.066 198.766C282.932 200.52 283.365 202.4 283.365 204.405C283.365 207.595 282.67 210.284 281.28 212.472C279.89 214.636 277.851 216.266 275.162 217.359C272.496 218.453 269.238 219 265.387 219ZM318.536 169.234H328.756V202.115C328.756 205.943 327.936 209.168 326.295 211.788C324.677 214.409 322.433 216.38 319.562 217.701C316.713 219.023 313.432 219.684 309.718 219.684C306.004 219.684 302.7 219.023 299.806 217.701C296.935 216.38 294.679 214.409 293.038 211.788C291.42 209.168 290.611 205.943 290.611 202.115V169.234H300.865V202.115C300.865 204.348 301.218 206.171 301.925 207.584C302.631 208.997 303.645 210.034 304.967 210.694C306.311 211.355 307.895 211.686 309.718 211.686C311.586 211.686 313.17 211.355 314.469 210.694C315.79 210.034 316.793 208.997 317.477 207.584C318.183 206.171 318.536 204.348 318.536 202.115V169.234ZM344.034 169.234L354.425 191.93L364.815 169.234H375.992L359.62 200.885V219H349.229V200.885L332.823 169.234H344.034Z" fill="white"/>
</svg>
