<svg width="595" height="271" viewBox="0 0 595 271" fill="none" xmlns="http://www.w3.org/2000/svg">
<path d="M571.666 140.485C573.547 140.083 574.708 138.225 574.259 136.335L566.944 105.54C566.495 103.65 564.607 102.444 562.725 102.846C560.844 103.248 559.683 105.106 560.132 106.996L566.635 134.37L539.387 140.194C537.505 140.596 536.344 142.454 536.793 144.343C537.242 146.233 539.131 147.439 541.012 147.037L571.666 140.485ZM185.5 20.5L187.133 17.4463L184.635 16.0699L182.819 18.1846L185.5 20.5ZM308 88L306.367 91.0537L308.455 92.2041L310.259 90.7282L308 88ZM389.525 21.2825L391.358 18.3482L389.201 16.9708L387.266 18.5544L389.525 21.2825ZM112.5 105.5L111.355 108.777L113.632 109.619L115.181 107.815L112.5 105.5ZM183.867 23.5536L306.367 91.0537L309.633 84.9463L187.133 17.4463L183.867 23.5536ZM310.259 90.7282L391.783 24.0107L387.266 18.5544L305.741 85.2719L310.259 90.7282ZM387.691 24.2169L569.02 139.998L572.687 134.129L391.358 18.3482L387.691 24.2169ZM0.339904 67.6959L111.355 108.777L113.645 102.223L2.62914 61.1419L0.339904 67.6959ZM115.181 107.815L188.181 22.8154L182.819 18.1846L109.819 103.185L115.181 107.815Z" fill="#F00707"/>
<path d="M259.725 205.978C259.725 205.089 259.588 204.291 259.315 203.585C259.064 202.856 258.586 202.195 257.879 201.603C257.173 200.987 256.182 200.383 254.906 199.791C253.63 199.199 251.978 198.583 249.95 197.945C247.694 197.216 245.552 196.396 243.524 195.484C241.519 194.573 239.741 193.513 238.192 192.306C236.665 191.075 235.458 189.651 234.569 188.033C233.703 186.415 233.27 184.535 233.27 182.394C233.27 180.32 233.726 178.44 234.637 176.754C235.549 175.045 236.825 173.587 238.465 172.379C240.106 171.148 242.043 170.203 244.276 169.542C246.532 168.881 249.004 168.551 251.693 168.551C255.361 168.551 258.563 169.212 261.297 170.533C264.032 171.855 266.151 173.666 267.655 175.968C269.181 178.269 269.945 180.901 269.945 183.863H259.759C259.759 182.405 259.452 181.129 258.836 180.035C258.244 178.919 257.333 178.041 256.102 177.403C254.894 176.765 253.368 176.446 251.522 176.446C249.745 176.446 248.264 176.72 247.079 177.267C245.894 177.791 245.005 178.508 244.413 179.42C243.82 180.309 243.524 181.311 243.524 182.428C243.524 183.271 243.729 184.034 244.139 184.718C244.572 185.401 245.21 186.039 246.053 186.632C246.896 187.224 247.933 187.783 249.164 188.307C250.394 188.831 251.818 189.343 253.436 189.845C256.148 190.665 258.529 191.588 260.58 192.613C262.653 193.639 264.385 194.789 265.775 196.065C267.165 197.341 268.213 198.788 268.919 200.406C269.626 202.024 269.979 203.858 269.979 205.909C269.979 208.074 269.557 210.011 268.714 211.72C267.871 213.429 266.652 214.876 265.057 216.061C263.462 217.245 261.559 218.146 259.349 218.761C257.139 219.376 254.667 219.684 251.932 219.684C249.471 219.684 247.044 219.365 244.652 218.727C242.259 218.066 240.083 217.075 238.124 215.753C236.187 214.431 234.637 212.745 233.475 210.694C232.313 208.644 231.732 206.217 231.732 203.414H242.02C242.02 204.964 242.259 206.274 242.738 207.345C243.216 208.416 243.889 209.282 244.754 209.942C245.643 210.603 246.691 211.082 247.899 211.378C249.129 211.674 250.474 211.822 251.932 211.822C253.709 211.822 255.168 211.572 256.307 211.07C257.469 210.569 258.324 209.874 258.871 208.985C259.44 208.097 259.725 207.094 259.725 205.978ZM310.345 211.002V219H283.856V211.002H310.345ZM287.206 169.234V219H276.952V169.234H287.206ZM306.893 189.503V197.296H283.856V189.503H306.893ZM310.311 169.234V177.267H283.856V169.234H310.311ZM348.319 211.002V219H323.265V211.002H348.319ZM326.581 169.234V219H316.327V169.234H326.581ZM386.19 211.002V219H361.136V211.002H386.19ZM364.452 169.234V219H354.198V169.234H364.452Z" fill="white"/>
</svg>
